<svg width="49" height="25" viewBox="0 0 49 25" fill="none" xmlns="http://www.w3.org/2000/svg">
<path d="M6.01716 7.05009C12.0489 5.417 17.3086 2.82479 25.0858 1.18927M5.18074 7.20987C11.1151 5.09453 17.2439 3.13713 25.1386 0.625437M6.26872 9.7211C14.4002 6.33947 25.0729 2.56765 29.5992 1.29145M5.61308 9.07798C14.9208 6.14721 23.45 3.36794 29.9708 1.17833M4.65407 12.2979C10.9752 9.2014 18.3636 6.87699 36.0857 0.716948M4.63189 12.0698C12.8958 8.93236 22.2378 5.72864 36.3532 0.826604M0.837127 14.563C11.1115 12.0068 20.1595 8.54662 38.658 2.09956M1.25027 14.8239C11.9533 11.4983 21.6314 8.29192 38.5687 2.07625M2.42892 16.8618C12.9027 12.9515 24.4646 9.47175 40.9302 3.416M2.49718 16.6928C14.2533 12.3854 27.3506 8.00824 40.9156 3.5422M2.72141 18.6657C16.7364 13.811 31.7252 9.03588 44.0283 4.52563M3.11158 18.6652C18.0501 13.6826 32.8895 8.51899 44.2394 4.71M3.57062 20.4293C18.1067 15.5385 30.5774 11.0027 43.9893 6.91327M4.14845 20.5646C18.9692 15.7386 33.4752 10.5111 44.551 6.74459M7.0324 21.5653C20.7362 17.0287 35.4682 11.3971 45.3775 8.90386M6.7991 21.6472C16.7668 18.3816 26.1051 15.0494 45.4688 8.43141M8.24343 22.8187C16.9325 20.2548 25.7943 17.7997 45.8825 10.228M9.2418 22.9378C20.1207 19.3129 30.7457 15.2818 46.1551 10.0554M11.7621 23.8517C18.4636 21.3157 26.1976 18.4794 47.3306 11.5863M11.6333 24.1594C20.1006 21.1641 30.4772 17.5633 48.3914 11.5431M17.6357 24.018C25.4191 21.6936 31.9597 18.7609 45.1588 14.6736M16.7437 24.4027C23.9638 22.0239 30.0327 20.2031 46.2308 14.463M24.1616 24.0504C29.9264 21.895 37.2496 19.9169 43.2183 17.4405M23.4559 24.2984C31.1053 21.676 38.1652 18.9887 43.5775 17.6496M12.6769 2.77577V2.77577Z" stroke="#DEF868" stroke-width="1.25"/>
</svg>
