<svg width="40" height="25" viewBox="0 0 40 25" fill="none" xmlns="http://www.w3.org/2000/svg">
  <path
    d="M1.18 20V5.3H5.1C5.47333 5.3 5.84 5.34667 6.2 5.44C6.57333 5.52 6.92 5.66 7.24 5.86C7.56 6.06 7.83333 6.31333 8.06 6.62C8.3 6.91333 8.48667 7.23333 8.62 7.58C8.75333 7.92667 8.84667 8.28667 8.9 8.66C8.95333 9.03333 8.98 9.40667 8.98 9.78C8.98 10.22 8.94 10.66 8.86 11.1C8.79333 11.54 8.66 11.96 8.46 12.36C8.26 12.7467 7.98667 13.0933 7.64 13.4C7.30667 13.6933 6.93333 13.9133 6.52 14.06L9.36 20H7.02L4.28 14.26H3.4V20H1.18ZM3.4 12.34H5.1C5.28667 12.34 5.46667 12.3067 5.64 12.24C5.82667 12.16 5.98667 12.0533 6.12 11.92C6.25333 11.7867 6.36 11.6333 6.44 11.46C6.52 11.2733 6.58 11.0933 6.62 10.92C6.67333 10.7333 6.70667 10.5467 6.72 10.36C6.74667 10.16 6.76 9.96667 6.76 9.78C6.76 9.59333 6.74667 9.40667 6.72 9.22C6.70667 9.02 6.67333 8.82667 6.62 8.64C6.58 8.45333 6.52 8.27333 6.44 8.1C6.36 7.92667 6.25333 7.77333 6.12 7.64C5.98667 7.50667 5.82667 7.40667 5.64 7.34C5.46667 7.26 5.28667 7.22 5.1 7.22H3.4V12.34Z"
    fill="#9B1DFF" />
  <path
    d="M11.5 20V18.08H13.88V7.22H11.5V5.3H18.5V7.22H16.12V18.08H18.5V20H11.5ZM21.76 20V5.3H28.82V7.22H24V11.4H27.68V13.32H24V20H21.76ZM31.76 20V5.3H38.82V7.22H34V11.4H37.68V13.32H34V20H31.76Z"
    fill="currentColor" />
</svg>