<svg width="482" height="189" viewBox="0 0 482 189" fill="none" xmlns="http://www.w3.org/2000/svg">
  <path
    d="M0.104001 189V0.839996H50.28C55.0587 0.839996 59.752 1.43733 64.36 2.63199C69.1387 3.65599 73.576 5.44799 77.672 8.008C81.768 10.568 85.2667 13.8107 88.168 17.736C91.24 21.4907 93.6293 25.5867 95.336 30.024C97.0427 34.4613 98.2373 39.0693 98.92 43.848C99.6027 48.6267 99.944 53.4053 99.944 58.184C99.944 63.816 99.432 69.448 98.408 75.08C97.5547 80.712 95.848 86.088 93.288 91.208C90.728 96.1573 87.2293 100.595 82.792 104.52C78.5253 108.275 73.7467 111.091 68.456 112.968L104.808 189H74.856L39.784 115.528H28.52V189H0.104001ZM28.52 90.952H50.28C52.6693 90.952 54.9733 90.5253 57.192 89.672C59.5813 88.648 61.6293 87.2827 63.336 85.576C65.0427 83.8693 66.408 81.9067 67.432 79.688C68.456 77.2987 69.224 74.9947 69.736 72.776C70.4187 70.3867 70.8453 67.9973 71.016 65.608C71.3573 63.048 71.528 60.5733 71.528 58.184C71.528 55.7947 71.3573 53.4053 71.016 51.016C70.8453 48.456 70.4187 45.9813 69.736 43.592C69.224 41.2027 68.456 38.8987 67.432 36.68C66.408 34.4613 65.0427 32.4987 63.336 30.792C61.6293 29.0853 59.5813 27.8053 57.192 26.952C54.9733 25.928 52.6693 25.416 50.28 25.416H28.52V90.952Z"
    fill="#9B1DFF" />
  <path
    d="M132.2 189V164.424H162.664V25.416H132.2V0.839996H221.8V25.416H191.336V164.424H221.8V189H132.2ZM263.528 189V0.839996H353.896V25.416H292.2V78.92H339.304V103.496H292.2V189H263.528ZM391.528 189V0.839996H481.896V25.416H420.2V78.92H467.304V103.496H420.2V189H391.528Z"
    fill="currentColor" />
</svg>